<?xml version="1.0" encoding="UTF-8" standalone="no"?>
<svg
   xmlns:dc="http://purl.org/dc/elements/1.1/"
   xmlns:cc="http://creativecommons.org/ns#"
   xmlns:rdf="http://www.w3.org/1999/02/22-rdf-syntax-ns#"
   xmlns:svg="http://www.w3.org/2000/svg"
   xmlns="http://www.w3.org/2000/svg"
   xmlns:sodipodi="http://sodipodi.sourceforge.net/DTD/sodipodi-0.dtd"
   xmlns:inkscape="http://www.inkscape.org/namespaces/inkscape"
   width="210mm"
   height="207mm"
   viewBox="0 0 210 207"
   version="1.1"
   id="svg8"
   inkscape:version="1.0.2-2 (e86c870879, 2021-01-15)"
   sodipodi:docname="ecommlogo.svg">
  <defs
     id="defs2" />
  <sodipodi:namedview
     id="base"
     pagecolor="#ffffff"
     bordercolor="#666666"
     borderopacity="1.0"
     inkscape:pageopacity="0.0"
     inkscape:pageshadow="2"
     inkscape:zoom="0.33557348"
     inkscape:cx="-227.28438"
     inkscape:cy="560"
     inkscape:document-units="mm"
     inkscape:current-layer="layer1"
     inkscape:document-rotation="0"
     showgrid="false"
     inkscape:window-width="1366"
     inkscape:window-height="705"
     inkscape:window-x="-8"
     inkscape:window-y="-8"
     inkscape:window-maximized="1" />
  <metadata
     id="metadata5">
    <rdf:RDF>
      <cc:Work
         rdf:about="">
        <dc:format>image/svg+xml</dc:format>
        <dc:type
           rdf:resource="http://purl.org/dc/dcmitype/StillImage" />
        <dc:title></dc:title>
      </cc:Work>
    </rdf:RDF>
  </metadata>
  <g
     inkscape:label="Layer 1"
     inkscape:groupmode="layer"
     id="layer1">
    <path
       style="fill:none;stroke:#326fd2;stroke-width:9.57699941;stroke-linecap:butt;stroke-linejoin:miter;stroke-opacity:1;stroke-miterlimit:4;stroke-dasharray:none;stroke-dashoffset:0"
       d="m 13.026768,70.903073 c 0,0 -25.517305,-45.598599 6.585113,-53.060188 32.102414,-7.461599 51.03461,0 51.03461,0 0,0 22.224746,29.017292 28.809866,50.572995 6.585113,21.555716 2.469413,33.16263 2.469413,33.16263 0,0 -79.844471,-7.461594 -88.899002,-30.675437 z"
       id="path16"
       sodipodi:nodetypes="cscscc" />
    <path
       style="fill:none;stroke:#326fd2;stroke-width:9.57699941;stroke-linecap:butt;stroke-linejoin:miter;stroke-opacity:1;stroke-miterlimit:4;stroke-dasharray:none;stroke-dashoffset:0"
       d="m 142.76741,16.791177 c 0,0 45.8385,-24.6625514 52.51837,7.831574 6.67989,32.494136 -1.15491,51.388905 -1.15491,51.388905 0,0 -29.30542,21.72238 -50.85057,27.865424 -21.54515,6.14301 -32.973,1.73608 -32.973,1.73608 0,0 9.21322,-80.229914 32.46011,-88.821983 z"
       id="path16-7"
       sodipodi:nodetypes="cscscc" />
    <path
       style="fill:none;stroke:#326fd2;stroke-width:9.57699941;stroke-linecap:butt;stroke-linejoin:miter;stroke-opacity:1;stroke-miterlimit:4;stroke-dasharray:none;stroke-dashoffset:0"
       d="m 199.90764,144.69687 c 0,0 24.65118,46.07942 -7.5864,52.92437 -32.23758,6.84497 -51.02537,-0.97814 -51.02537,-0.97814 0,0 -21.67249,-29.43801 -27.84916,-51.11602 -6.17666,-21.67802 -1.84242,-33.20395 -1.84242,-33.20395 0,0 79.68904,8.99056 88.30335,32.37374 z"
       id="path16-7-5"
       sodipodi:nodetypes="cscscc" />
    <path
       style="fill:none;stroke:#326fd2;stroke-width:9.57699941;stroke-linecap:butt;stroke-linejoin:miter;stroke-opacity:1;stroke-miterlimit:4;stroke-dasharray:none;stroke-dashoffset:0"
       d="m 59.248954,195.70895 c 0,0 -48.721932,18.21107 -50.9900138,-14.89354 -2.2680909,-33.10464 8.0250308,-50.76261 8.0250308,-50.76261 0,0 31.946211,-17.5434 54.117061,-20.70386 22.170848,-3.16044 32.904248,2.75846 32.904248,2.75846 0,0 -19.871369,78.24559 -44.056326,83.60155 z"
       id="path16-7-5-9"
       sodipodi:nodetypes="cscscc" />
  </g>
</svg>
