<?xml version="1.0" encoding="UTF-8" standalone="no"?>
<svg
   xmlns:dc="http://purl.org/dc/elements/1.1/"
   xmlns:cc="http://creativecommons.org/ns#"
   xmlns:rdf="http://www.w3.org/1999/02/22-rdf-syntax-ns#"
   xmlns:svg="http://www.w3.org/2000/svg"
   xmlns="http://www.w3.org/2000/svg"
   xmlns:sodipodi="http://sodipodi.sourceforge.net/DTD/sodipodi-0.dtd"
   xmlns:inkscape="http://www.inkscape.org/namespaces/inkscape"
   width="200mm"
   height="197mm"
   viewBox="0 0 200 197"
   version="1.1"
   id="svg8911"
   inkscape:version="1.0.2-2 (e86c870879, 2021-01-15)"
   sodipodi:docname="logo4.svg">
  <defs
     id="defs8905" />
  <sodipodi:namedview
     id="base"
     pagecolor="#ffffff"
     bordercolor="#666666"
     borderopacity="1.0"
     inkscape:pageopacity="0.0"
     inkscape:pageshadow="2"
     inkscape:zoom="0.35"
     inkscape:cx="348.57143"
     inkscape:cy="560"
     inkscape:document-units="mm"
     inkscape:current-layer="layer1"
     inkscape:document-rotation="0"
     showgrid="false"
     inkscape:window-width="1267"
     inkscape:window-height="728"
     inkscape:window-x="78"
     inkscape:window-y="0"
     inkscape:window-maximized="0" />
  <metadata
     id="metadata8908">
    <rdf:RDF>
      <cc:Work
         rdf:about="">
        <dc:format>image/svg+xml</dc:format>
        <dc:type
           rdf:resource="http://purl.org/dc/dcmitype/StillImage" />
        <dc:title></dc:title>
      </cc:Work>
    </rdf:RDF>
  </metadata>
  <g
     inkscape:label="Layer 1"
     inkscape:groupmode="layer"
     id="layer1">
    <path
       sodipodi:type="spiral"
       style="fill:none;fill-rule:evenodd;stroke:#c56251;stroke-width:12.7924;stroke-miterlimit:4;stroke-dasharray:none;stroke-opacity:1"
       id="path8303"
       sodipodi:cx="365.05295"
       sodipodi:cy="124.5753"
       sodipodi:expansion="1.09"
       sodipodi:revolution="4.5"
       sodipodi:radius="164.67476"
       sodipodi:argument="-25.406527"
       sodipodi:t0="0.0099999998"
       transform="matrix(0.5809148,0,0,0.59755809,-106.4395,19.867184)"
       d="m 366.1409,124.58505 c 4.40933,1.18602 1.23818,7.05386 -1.16362,8.43747 -6.7682,3.89897 -14.42369,-2.13442 -16.41659,-8.59496 -3.54597,-11.49527 5.77402,-22.45627 16.71522,-24.741296 16.21353,-3.386131 30.86542,9.614066 33.3079,25.189416 3.29454,21.00881 -13.58241,39.52417 -33.91036,42.06216 -25.88326,3.23159 -48.37177,-17.64688 -50.97045,-42.82254 -3.18226,-30.829301 21.78891,-57.372406 51.89165,-60.009753 35.8391,-3.139919 66.50231,25.996205 69.16326,61.094193 3.10128,40.90598 -30.25999,75.74448 -70.41304,78.41814 -46.02438,3.06461 -85.08616,-34.57363 -87.76429,-79.83513 C 273.55167,72.593061 315.51252,29.265468 365.93073,26.589277 422.32878,23.595678 469.96052,69.920028 472.62962,125.539 475.58796,187.18519 424.863,239.15605 364.0027,241.81383 297.07137,244.73675 240.72925,189.57714 238.0863,123.4379 235.19911,51.186874 294.82479,-9.5563237 366.27805,-12.18146 c 77.60318,-2.851079 142.77527,61.26994 145.38003,138.07009 2.81454,82.98591 -65.82919,152.613 -148.00717,155.19513 -70.81259,2.22503 -135.4772,-44.89473 -157.1393,-111.98407" />
  </g>
</svg>
