<?xml version="1.0" encoding="UTF-8" standalone="no"?>
<svg
   xmlns:dc="http://purl.org/dc/elements/1.1/"
   xmlns:cc="http://creativecommons.org/ns#"
   xmlns:rdf="http://www.w3.org/1999/02/22-rdf-syntax-ns#"
   xmlns:svg="http://www.w3.org/2000/svg"
   xmlns="http://www.w3.org/2000/svg"
   xmlns:sodipodi="http://sodipodi.sourceforge.net/DTD/sodipodi-0.dtd"
   xmlns:inkscape="http://www.inkscape.org/namespaces/inkscape"
   width="170mm"
   height="77mm"
   viewBox="0 0 170 77"
   version="1.1"
   id="svg4995"
   inkscape:version="1.0.2-2 (e86c870879, 2021-01-15)"
   sodipodi:docname="logo3.svg">
  <defs
     id="defs4989" />
  <sodipodi:namedview
     id="base"
     pagecolor="#ffffff"
     bordercolor="#666666"
     borderopacity="1.0"
     inkscape:pageopacity="0.0"
     inkscape:pageshadow="2"
     inkscape:zoom="0.33557348"
     inkscape:cx="324.86515"
     inkscape:cy="560"
     inkscape:document-units="mm"
     inkscape:current-layer="layer1"
     inkscape:document-rotation="0"
     showgrid="false"
     inkscape:window-width="1366"
     inkscape:window-height="705"
     inkscape:window-x="-8"
     inkscape:window-y="-8"
     inkscape:window-maximized="1" />
  <metadata
     id="metadata4992">
    <rdf:RDF>
      <cc:Work
         rdf:about="">
        <dc:format>image/svg+xml</dc:format>
        <dc:type
           rdf:resource="http://purl.org/dc/dcmitype/StillImage" />
        <dc:title></dc:title>
      </cc:Work>
    </rdf:RDF>
  </metadata>
  <g
     inkscape:label="Layer 1"
     inkscape:groupmode="layer"
     id="layer1">
    <g
       id="g4987"
       style="fill:#aa8800;stroke-width:4.8;stroke-miterlimit:4;stroke-dasharray:none;stroke:#db6acd;stroke-opacity:1"
       transform="translate(335.64816,-165.29231)">
      <path
         style="fill:#aa8800;fill-opacity:1;stroke:#db6acd;stroke-width:4.8;stroke-miterlimit:4;stroke-dasharray:none;stroke-opacity:1;paint-order:fill markers stroke;stop-color:#000000"
         id="path4959"
         d="m -301.00391,219.95504 c 3.0194,0.90362 6.10139,1.57155 9.08121,2.6107 9.00073,1.75468 17.99857,3.53687 26.88273,5.81951 3.88018,1.04229 7.57396,2.63058 11.46679,3.61583 6.92944,1.14174 13.77396,2.71689 20.61995,4.27752 5.44496,1.26053 10.90215,2.47441 16.40164,3.47563 1.37692,0.25067 2.74907,0.54195 4.1392,0.70408 2.94228,0.34316 3.81265,0.18448 6.64964,0.0306 3.18536,-0.53477 6.75061,-1.8246 8.32622,-4.91759 0.32866,-0.64517 0.51815,-1.35224 0.77722,-2.02837 1.15666,-4.49628 1.55821,-9.14014 1.79861,-13.76293 0.0257,-0.70658 0.11041,-2.00409 0.008,-2.74972 -0.521,-3.80657 -5.71862,-5.15945 -8.2497,-6.63157 -1.89409,-0.78696 -3.92787,-1.01666 -5.9559,-1.1322 -1.5854,-0.18713 -2.92645,0.0464 -4.1594,1.07442 -0.96361,0.79404 -1.84543,1.68342 -2.64559,2.64403 -0.81097,1.06223 -1.2288,2.34548 -1.67834,3.58773 0,0 6.11954,3.38923 6.11954,3.38923 v 0 c 0.41646,-1.16382 0.80104,-2.37441 1.56234,-3.36559 0.78603,-0.91085 1.65059,-1.75443 2.58578,-2.51062 1.16797,-0.8302 2.44517,-0.81732 3.83774,-0.67608 1.98044,0.15626 3.96492,0.44186 5.75602,1.36031 -11.67132,-6.9295 -4.5673,-3.32226 -3.73988,-1.79399 0.61209,1.13056 0.46566,2.42504 0.44603,3.65693 -0.14597,4.56141 -0.43782,9.16184 -1.65543,13.58158 -0.24934,0.61997 -0.43862,1.26762 -0.74802,1.85991 -1.50588,2.88276 -4.85384,4.02579 -7.84125,4.49361 -0.98975,0.0485 -1.97837,0.15505 -2.96926,0.14543 -3.0401,-0.0295 -4.46463,-0.32819 -7.53716,-0.86785 -5.44423,-0.95621 -10.84591,-2.13491 -16.23096,-3.37756 -7.00901,-1.63201 -13.99616,-3.37265 -21.07772,-4.65313 -3.80365,-1.04168 -7.46316,-2.54669 -11.30208,-3.47827 -8.97422,-2.1641 -18.0684,-3.77863 -27.02711,-5.99968 -3.03723,-0.98516 -6.16328,-1.65978 -9.18602,-2.68964 0,0 5.5448,4.30774 5.5448,4.30774 z" />
      <path
         style="fill:#aa8800;fill-opacity:1;stroke:#db6acd;stroke-width:4.8;stroke-miterlimit:4;stroke-dasharray:none;stroke-opacity:1;paint-order:fill markers stroke;stop-color:#000000"
         id="path4961"
         d="m -192.01782,214.39486 c 2.48734,-1.44922 5.07515,-2.73355 7.66989,-3.98051 1.98355,-0.84243 4.10111,-1.72298 6.29493,-1.60454 2.15513,1.09813 5.65464,2.72551 -4.21333,-2.40851 -0.23733,-0.12348 0.41254,0.34206 0.60112,0.53182 0.42215,0.42478 0.6839,0.81391 1.04171,1.29457 0.83123,1.3829 1.58794,2.83049 2.24206,4.30753 0.48879,1.63383 1.10924,3.43306 0.69125,5.14142 -0.48788,0.76677 -1.48591,0.99575 -2.30201,1.30732 0,0 5.83199,3.90613 5.83199,3.90613 v 0 c 1.03079,-0.43309 2.11001,-0.79412 2.63281,-1.87078 0.51249,-1.84352 -0.0433,-3.74553 -0.52134,-5.54901 -0.5362,-1.56553 -1.45292,-2.97289 -2.16319,-4.46402 -2.21485,-3.19416 -5.5582,-5.69764 -9.50637,-6.30253 -2.2455,0.16466 -4.37135,0.94513 -6.39296,1.90864 -2.62718,1.2864 -5.25006,2.58782 -7.81099,4.00193 0,0 5.90443,3.78054 5.90443,3.78054 z" />
      <path
         style="fill:#aa8800;fill-opacity:1;stroke:#db6acd;stroke-width:4.8;stroke-miterlimit:4;stroke-dasharray:none;stroke-opacity:1;paint-order:fill markers stroke;stop-color:#000000"
         id="path4963"
         d="m -300.49276,220.16617 c -0.68205,-2.59161 -1.3788,-5.17324 -1.8586,-7.81194 -0.0477,-0.62944 -0.16565,-1.33567 0.007,-1.9674 0.37597,-1.37373 2.64617,-2.18982 3.71641,-2.77372 4.12533,-2.55121 8.5911,-4.36612 13.2338,-5.71463 2.59443,-0.56483 5.30783,-1.3744 7.98931,-1.0667 2.61818,0.9839 1.21634,0.49729 -4.73118,-2.76985 -0.65672,-0.36074 0.92266,0.6036 1.43904,1.21019 0,0 6.43435,2.79869 6.43435,2.79869 v 0 c -0.35277,-0.60988 -0.70122,-1.13211 -1.33122,-1.49528 -6.63916,-3.82723 -4.17528,-3.29001 -7.44109,-3.88466 -2.71529,-0.0119 -5.38451,0.64775 -7.98682,1.36549 -4.65537,1.455 -9.14455,3.32297 -13.36069,5.79525 -2.7046,1.43646 -4.57658,2.04304 -4.20727,5.46405 0.4749,2.61744 1.1562,5.18275 1.78615,7.76532 0,0 6.31055,3.08519 6.31055,3.08519 z" />
      <path
         style="fill:#aa8800;fill-opacity:1;stroke:#db6acd;stroke-width:4.8;stroke-miterlimit:4;stroke-dasharray:none;stroke-opacity:1;paint-order:fill markers stroke;stop-color:#000000"
         id="path4965"
         d="m -302.20129,211.46866 c -1.32717,-1.64397 -2.45747,-3.40999 -3.51842,-5.23455 -2.41671,-4.117 -6.198,-5.20266 -10.49785,-7.62817 -2.19004,-0.86457 -4.42251,-1.45842 -6.75756,-1.74279 -2.04246,-0.18378 -4.08361,-0.43338 -6.07426,0.14659 -1.69306,0.69767 -2.34471,2.1454 -2.69375,3.83138 -0.23058,1.57974 -0.1992,3.18186 -0.19163,4.77393 0.0259,1.79835 0.0299,3.59691 0.0328,5.39541 2.4e-4,0.28083 0,0.56167 0,0.84251 0,0 6.22935,3.17239 6.22935,3.17239 v 0 c 0,-0.2814 -0.003,-0.56279 -0.003,-0.84419 -0.008,-1.79776 -0.022,-3.5955 -0.0241,-5.39328 -0.0106,-1.54998 -0.0473,-3.1073 0.13271,-4.64978 0.25795,-1.45764 0.73499,-2.67617 2.26579,-3.16386 1.94389,-0.40461 3.93266,-0.14789 5.89161,0.0512 2.28777,0.35443 4.5039,0.97716 6.62241,1.92526 -1.65115,-0.97426 -3.30538,-1.94333 -4.95347,-2.92278 -0.31377,-0.18649 0.63973,0.35226 0.95046,0.54379 1.15546,0.71218 2.06547,1.63137 2.71261,2.83551 1.05429,1.802 2.04724,3.65157 3.45075,5.21398 0,0 6.42459,2.84747 6.42459,2.84747 z" />
      <path
         style="fill:#aa8800;fill-opacity:1;stroke:#db6acd;stroke-width:4.8;stroke-miterlimit:4;stroke-dasharray:none;stroke-opacity:1;paint-order:fill markers stroke;stop-color:#000000"
         id="path4975"
         d="m -258.70485,227.26223 c -0.34881,-2.35437 -0.68391,-4.71157 -1.01112,-7.06985 -0.24253,-2.45825 -0.54094,-4.90587 -0.85708,-7.35571 -0.23445,-2.40819 -1.13787,-4.64177 -1.95288,-6.89178 -0.67089,-1.68833 -1.59924,-3.25031 -2.27047,-4.93731 -0.76086,-1.8268 -1.29029,-3.73335 -1.9789,-5.58727 -0.61928,-1.75176 -1.12008,-3.55022 -1.56699,-5.35383 -0.52843,-2.51952 -1.09794,-4.92833 -2.61811,-7.04414 -2.9478,-2.86162 -6.72518,-5.12595 -10.86479,-5.33938 -1.95893,-0.006 -3.89406,-0.32118 -5.76723,-0.87269 -1.18023,-0.75963 -2.46671,-1.13088 -3.8412,-1.32388 -1.49611,-0.15077 -3.00259,-0.12533 -4.50413,-0.16913 -0.0537,-0.003 -0.20526,-0.0404 -0.16116,-0.01 6.44753,4.5074 4.10588,4.15507 8.62163,4.15074 1.79145,0.007 3.58278,-0.009 5.37417,-0.0149 2.24941,8e-4 4.49879,0.005 6.7482,0.002 2.13227,-0.0604 4.27661,0.12608 6.34992,0.63292 2.22374,1.09264 6.50882,2.86488 -3.64572,-2.13489 -0.2634,-0.12969 0.42103,0.41177 0.60235,0.6427 0.45942,0.58506 0.56142,0.89596 0.87643,1.56088 0.55001,1.61684 0.78523,3.3251 1.11347,4.99939 0.0427,0.23129 0.38801,2.27324 0.55724,2.357 6.55834,3.24575 5.69722,5.15698 6.65265,2.41156 0.0181,-1.87757 -0.25435,-3.752 -0.3831,-5.62681 -0.075,-2.1435 1.14351,-2.70871 2.70887,-3.84657 2.08288,-1.31616 3.77307,-3.12802 5.73961,-4.5861 1.2392,-1.1977 2.75707,-1.7903 4.39593,-2.20873 1.33172,-0.44336 2.7929,-0.21681 4.13881,-0.5216 -5.84442,-3.75902 -5.21602,-4.95007 -9.50058,-2.29635 -1.22977,0.72417 -2.2723,1.69346 -3.57097,2.30476 -1.46266,0.6929 -2.89022,1.46746 -4.24077,2.36261 -0.92898,0.575 -1.86825,1.10016 -2.68443,1.82597 0,0 5.93477,3.70251 5.93477,3.70251 v 0 c 0.82262,-0.66579 1.74461,-1.1763 2.63314,-1.75056 1.35237,-0.85545 2.76282,-1.61171 4.21094,-2.29133 1.27088,-0.67885 2.35357,-1.62019 3.59186,-2.35018 4.17949,-2.38143 5.29402,-0.0842 -2.17494,-5.56532 -1.3703,0.14706 -2.74682,0.29308 -4.08556,0.63307 -1.70266,0.49341 -3.2615,1.17155 -4.54612,2.43406 -1.90964,1.51547 -3.6143,3.28669 -5.70078,4.58209 -1.66134,1.16538 -3.16293,2.20769 -3.08525,4.4478 0.12118,1.79214 0.2934,3.57975 0.43741,5.37009 -0.51554,2.54208 -0.0844,0.002 6.11596,3.53322 0.0843,0.048 -0.20381,0.12654 -0.28268,0.07 -0.17277,-0.12394 -0.4289,-1.02803 -0.4489,-1.11629 -0.061,-0.26934 -0.0828,-0.54609 -0.1242,-0.81914 -0.32254,-1.72042 -0.63015,-3.44687 -1.05892,-5.14131 -1.68021,-4.29699 -5.41853,-5.78042 -9.72724,-7.19786 -2.12019,-0.39577 -4.26742,-0.58922 -6.42578,-0.50549 -2.24745,-0.003 -4.4949,0.002 -6.74235,0.002 -1.80652,-0.006 -3.61299,-0.0215 -5.41957,-0.0196 -3.99423,-0.0175 -4.489,-0.67481 2.89907,4.12199 1.47174,-0.0166 2.95288,0.0145 4.40941,0.24158 1.33684,0.28089 2.53204,0.8515 3.78809,1.36786 1.90739,0.48921 3.8735,0.67554 5.83809,0.76108 0.67175,0.0738 1.02825,0.0869 1.67412,0.25386 0.26332,0.0681 1.00611,0.395 0.77738,0.24783 -9.4923,-6.108 -5.62946,-3.43282 -3.59625,-2.04754 1.77425,2.03477 2.20885,4.17059 2.7246,6.75344 0.39172,1.8404 0.96523,3.64642 1.53003,5.43921 0.70441,1.85368 1.23913,3.75458 1.9838,5.59101 0.6133,1.70983 1.4773,3.29123 2.26917,4.92352 0.78923,2.22553 1.82674,4.38785 2.06103,6.77099 0.27646,2.4581 0.62767,4.90432 0.8556,7.36825 0.32303,2.34695 0.67369,4.68661 0.91388,7.04376 0,0 6.31054,3.0852 6.31054,3.0852 z" />
      <path
         style="fill:#aa8800;fill-opacity:1;stroke:#db6acd;stroke-width:4.8;stroke-miterlimit:4;stroke-dasharray:none;stroke-opacity:1;paint-order:fill markers stroke;stop-color:#000000"
         id="path4977"
         d="m -223.16621,235.00489 c -0.0577,-2.59775 -0.0367,-5.19639 -0.0234,-7.79451 0.006,-2.02915 0.009,-4.05832 0.0146,-6.08748 -0.001,-1.83985 -0.002,-3.6797 10e-4,-5.51955 -0.01,-2.30786 -0.0258,-4.61558 -0.0195,-6.9235 0.009,-1.95338 0.0174,-3.90675 0.0219,-5.86014 0.0117,-1.74587 -0.005,-3.49161 -0.0111,-5.23743 0.0311,-1.81381 0.008,-3.62018 -0.0987,-5.42931 0.0309,-0.20391 0.006,-0.48818 0.23167,-0.61349 0.58682,-0.3256 3.1057,-0.26746 3.80919,-0.29137 2.31575,-0.0826 4.63372,0.10091 6.94183,-0.1154 2.31812,-0.25827 4.68923,-0.25447 6.88959,-1.10025 1.3471,-0.47511 2.30451,-1.52273 2.88403,-2.79643 0.50398,-1.58174 0.90909,-3.18949 1.39275,-4.77701 -0.34861,0.78364 0.45644,-1.24661 0.39032,-0.92008 -0.0284,0.14042 -0.0553,0.45065 -0.18426,0.38832 -2.06593,-0.99817 -3.87416,-2.50924 -5.9987,-3.37568 -0.26921,-0.1098 -0.10925,0.57217 -0.19278,0.85065 -0.11411,0.38042 -0.26608,0.74845 -0.39911,1.12267 -0.61702,2.38817 -1.98157,4.3503 -3.46906,6.26099 -1.0017,1.29662 -2.34796,1.72735 -3.90493,1.91877 -1.53453,0.11897 -3.07585,0.084 -4.61349,0.0716 -1.79302,-0.006 -3.58601,-0.0166 -5.37903,-0.0222 -1.78699,-0.0156 -3.57212,0.0522 -5.35292,-0.10623 -2.88461,-0.60135 -5.77905,-1.01486 -8.71556,-1.23743 -2.36866,-0.0503 -4.7773,-0.43075 -7.13798,-0.12114 -1.60762,0.47312 -1.99378,1.88249 -2.1962,3.3739 -0.0104,1.5686 -0.30188,3.10457 -0.52121,4.65205 -0.0847,0.62413 -0.0966,1.31945 -0.40946,1.88949 -0.0266,0.0485 -0.11826,0.16355 -0.12521,0.10871 -0.0169,-0.1329 -0.031,-0.45074 0.0893,-0.39184 2.02089,0.98935 3.92032,2.2096 5.88048,3.3144 -0.25276,-1.28712 -0.46196,-2.69991 -0.0281,-3.96327 0.88636,-1.07159 2.63654,-0.98674 3.91816,-1.05329 1.98495,-0.0536 3.97126,-0.0311 5.95674,-0.0238 2.15113,0.009 4.30228,0.0167 6.45342,0.024 2.30369,0.0165 3.19398,0.33328 4.13304,-2.04309 0.59229,-2.06185 0.58961,-4.17494 0.17159,-6.26238 -0.40371,-1.60821 -0.91546,-3.18404 -1.38014,-4.77443 -0.38885,-1.48717 -0.6499,-2.99989 -0.30464,-4.51224 0.60404,-1.40653 2.0084,-2.14474 3.31125,-2.80773 1.51092,-0.76392 3.01633,-1.52201 4.49789,-2.3405 4.29196,-3.13694 -1.84951,-4.21898 -5.24492,-6.0306 -1.83352,0.33258 -3.42708,1.35045 -4.85968,2.4962 -1.22017,1.01502 -2.07154,2.33236 -2.95168,3.62562 -1.05661,1.5396 -1.09577,3.38856 -1.16836,5.18812 -0.0867,2.75227 -0.0936,5.50617 -0.1062,8.25953 -0.0482,1.33658 0.0704,2.70236 -0.0588,4.02587 0.73411,-2.56186 -0.0412,-0.35356 5.9792,2.84913 0.13714,0.073 -0.22491,-0.21442 -0.34132,-0.31726 -0.16678,-0.14735 -0.83415,-0.71344 -1.00336,-0.81399 -2.19011,-1.30153 -4.40918,-2.5537 -6.61377,-3.83056 -2.15773,-1.09461 -5.83068,-2.9594 3.82136,2.26808 0.28224,0.15286 -0.53031,-0.36225 -0.78605,-0.55622 -0.62709,-0.47562 -0.99604,-0.82022 -1.58884,-1.34221 -1.1613,-0.81281 -1.79449,-2.36475 -3.00739,-3.10507 -2.16797,-1.32329 -4.38292,-2.56804 -6.57438,-3.85206 0,0 5.44966,4.40896 5.44966,4.40896 v 0 c -1.79215,-1.05588 -3.5843,-2.11176 -5.37645,-3.16764 0.1944,0.13765 0.4012,0.25927 0.5832,0.41293 0.92414,0.7803 1.59472,1.84771 2.47842,2.67149 3.06838,2.83129 6.71599,4.79974 10.45485,6.66006 -1.78758,-1.0474 -3.56988,-2.10389 -5.36276,-3.14221 -0.19097,-0.1106 0.37935,0.22706 0.55646,0.35872 0.15347,0.11408 0.58754,0.53587 0.78749,0.65494 2.09571,1.24803 4.13261,2.60769 6.31563,3.69579 0.15526,0.0774 0.24996,-0.24064 0.37494,-0.36096 0.5144,-1.08546 -0.11872,-3.15075 0.10576,-4.36277 -0.019,-2.74695 -0.0368,-5.49521 0.0652,-8.2409 0.0985,-1.65535 0.10502,-3.38914 1.06606,-4.81393 0.82305,-1.24338 1.63499,-2.50241 2.8142,-3.45233 1.3076,-1.00919 2.83093,-2.07806 4.55688,-1.9768 -1.86177,-1.1071 -3.78267,-2.12031 -5.5853,-3.3213 -0.0167,-0.0111 0.59601,-0.35095 0.49934,0.12989 -0.11026,0.54851 -0.75113,0.86905 -1.14593,1.16103 -1.46595,0.83321 -2.98775,1.54878 -4.48083,2.33143 -1.46856,0.80539 -2.94817,1.68899 -3.61403,3.30889 -0.44038,1.61793 -0.26019,3.217 0.13863,4.83633 0.43133,1.59694 0.97981,3.15782 1.4105,4.75581 0.53036,1.94008 0.53006,3.93505 0.0145,5.88584 -0.0921,0.24245 -0.14867,0.50162 -0.2764,0.72736 -0.5977,1.05624 -2.45244,0.48751 -3.39783,0.61415 -2.14542,0.002 -4.29083,-10e-5 -6.43621,-0.0147 -2.0013,-0.0128 -4.00437,-0.051 -6.00422,0.0498 -1.59784,0.12435 -3.44068,0.23438 -4.38309,1.72169 -0.51762,1.40966 -0.32265,2.87971 -0.21008,4.35274 4.83265,3.18061 6.5829,6.44202 7.13016,1.34877 0.21038,-1.5508 0.55436,-3.08436 0.53702,-4.65662 0.13,-1.21153 0.29094,-2.34947 1.68878,-2.58114 2.32412,-0.17358 4.66517,0.0684 6.98766,0.17033 2.94633,0.2539 5.84046,0.77849 8.75492,1.26417 1.80465,0.12274 3.61067,0.087 5.41899,0.0893 1.79499,0.003 3.59001,0.008 5.38488,0.0303 1.56165,0.009 3.13173,0.0422 4.68379,-0.16051 1.68274,-0.31589 3.11136,-0.9696 4.16451,-2.38352 1.5029,-1.98082 2.87643,-4.01762 3.55043,-6.45113 0.28154,-0.70972 0.82585,-2.04442 0.77436,-2.09083 -4.72202,-4.2562 -5.43367,-6.18202 -6.59054,-2.70374 -0.4734,1.55859 -0.8921,3.12935 -1.36853,4.68711 -0.50594,1.12979 -1.38519,1.94127 -2.57203,2.32885 -2.17468,0.71646 -4.47737,0.75845 -6.74001,0.97288 -2.30504,0.11238 -4.61428,0.006 -6.92078,0.10334 -1.61825,0.0725 -4.32098,-0.28541 -4.68583,1.80722 0.0971,1.80254 0.25544,3.60214 0.1617,5.41722 -0.007,1.74204 -0.0228,3.48401 -0.0111,5.22611 0.005,1.96082 0.0133,3.92163 0.0219,5.88244 0.006,2.30132 -0.01,4.60243 -0.0195,6.90367 0.003,1.84029 0.003,3.68058 0.001,5.52087 0.006,2.03413 0.008,4.06827 0.0146,6.10238 0.0131,2.59015 0.0346,5.18084 -0.0234,7.77062 0,0 6.2386,3.17873 6.2386,3.17873 z" />
    </g>
  </g>
</svg>
