<?xml version="1.0" encoding="UTF-8" standalone="no"?>
<svg
   xmlns:dc="http://purl.org/dc/elements/1.1/"
   xmlns:cc="http://creativecommons.org/ns#"
   xmlns:rdf="http://www.w3.org/1999/02/22-rdf-syntax-ns#"
   xmlns:svg="http://www.w3.org/2000/svg"
   xmlns="http://www.w3.org/2000/svg"
   xmlns:sodipodi="http://sodipodi.sourceforge.net/DTD/sodipodi-0.dtd"
   xmlns:inkscape="http://www.inkscape.org/namespaces/inkscape"
   width="120mm"
   height="147mm"
   viewBox="0 0 120 147"
   version="1.1"
   id="svg7683"
   inkscape:version="1.0.2-2 (e86c870879, 2021-01-15)"
   sodipodi:docname="logo2.svg">
  <defs
     id="defs7677" />
  <sodipodi:namedview
     id="base"
     pagecolor="#ffffff"
     bordercolor="#666666"
     borderopacity="1.0"
     inkscape:pageopacity="0.0"
     inkscape:pageshadow="2"
     inkscape:zoom="0.33557348"
     inkscape:cx="324.86515"
     inkscape:cy="560"
     inkscape:document-units="mm"
     inkscape:current-layer="layer1"
     inkscape:document-rotation="0"
     showgrid="false"
     inkscape:window-width="1366"
     inkscape:window-height="705"
     inkscape:window-x="-8"
     inkscape:window-y="-8"
     inkscape:window-maximized="1" />
  <metadata
     id="metadata7680">
    <rdf:RDF>
      <cc:Work
         rdf:about="">
        <dc:format>image/svg+xml</dc:format>
        <dc:type
           rdf:resource="http://purl.org/dc/dcmitype/StillImage" />
        <dc:title></dc:title>
      </cc:Work>
    </rdf:RDF>
  </metadata>
  <g
     inkscape:label="Layer 1"
     inkscape:groupmode="layer"
     id="layer1">
    <g
       id="g8253"
       transform="translate(369.63361,-60.741809)">
      <path
         style="fill:#445500;fill-opacity:1;stroke:#336f00;stroke-width:0.214458;stroke-miterlimit:4;stroke-dasharray:none;stroke-opacity:1;paint-order:fill markers stroke;stop-color:#000000"
         id="path7584"
         d="m -344.78979,109.92185 c -3.39712,0.0189 -6.79468,0.017 -10.19201,0.021 -3.33714,0.004 -6.65321,-0.0971 -9.94848,0.18843 -2.40319,0.34661 -3.10915,1.33714 -3.48786,2.4349 -0.18733,1.0231 -0.75225,2.01419 -1.03524,3.03198 -0.26712,1.13735 -0.29137,2.2835 -0.31501,3.42686 0.17862,0.74014 0.91331,1.488 2.27968,1.88827 9.72005,2.84754 6.53493,2.33547 11.36512,3.04088 1.59425,0.15613 0.7909,0.0914 2.41006,0.19402 0,0 -8.59015,-3.14787 -8.59015,-3.14787 v 0 c -1.54931,-0.14804 -0.78595,-0.0568 -2.29041,-0.27313 -3.92854,-0.8281 -1.66591,-0.37671 7.09798,2.12371 1.17919,0.33643 -4.19074,-1.32437 -2.70208,-1.44249 0.0183,-1.12317 0.0333,-2.2488 0.26891,-3.36723 0.26078,-1.01658 0.83975,-2.0023 1.02548,-3.0209 0.25948,-0.91816 0.66116,-1.68397 2.76608,-1.87936 3.23367,-0.23861 6.50464,-0.11879 9.76469,-0.14779 3.43676,0.004 6.87374,0.002 10.31025,0.021 0,0 -8.72701,-3.09218 -8.72701,-3.09218 z" />
      <path
         style="fill:#445500;fill-opacity:1;stroke:#336f00;stroke-width:0.214458;stroke-miterlimit:4;stroke-dasharray:none;stroke-opacity:1;paint-order:fill markers stroke;stop-color:#000000"
         id="path7584-6"
         d="m -346.64144,130.07776 c -3.39712,0.0189 -6.79468,0.017 -10.19201,0.021 -3.33714,0.004 -6.65321,-0.0971 -9.94848,0.18843 -2.40319,0.34661 -3.10915,1.33714 -3.48786,2.4349 -0.18733,1.0231 -0.75225,2.01419 -1.03524,3.03198 -0.26712,1.13735 -0.29137,2.2835 -0.31501,3.42686 0.17862,0.74014 0.91331,1.488 2.27968,1.88827 9.72005,2.84754 6.53493,2.33547 11.36512,3.04088 1.59425,0.15613 0.7909,0.0914 2.41006,0.19402 0,0 -8.59015,-3.14787 -8.59015,-3.14787 v 0 c -1.54931,-0.14804 -0.78595,-0.0568 -2.29041,-0.27313 -3.92854,-0.8281 -1.66591,-0.37671 7.09798,2.12371 1.17919,0.33643 -4.19074,-1.32437 -2.70208,-1.44249 0.0183,-1.12317 0.0333,-2.2488 0.26891,-3.36723 0.26078,-1.01658 0.83975,-2.0023 1.02548,-3.0209 0.25948,-0.91816 0.66116,-1.68397 2.76608,-1.87936 3.23367,-0.23861 6.50464,-0.11879 9.76469,-0.14779 3.43676,0.004 6.87374,0.002 10.31025,0.021 0,0 -8.72701,-3.09218 -8.72701,-3.09218 z" />
      <path
         style="fill:#445500;fill-opacity:1;stroke:#336f00;stroke-width:0.214458;stroke-miterlimit:4;stroke-dasharray:none;stroke-opacity:1;paint-order:fill markers stroke;stop-color:#000000"
         id="path7584-7"
         d="m -349.00679,149.78904 c -3.39712,0.0189 -6.79468,0.017 -10.19201,0.021 -3.33714,0.004 -6.65321,-0.0971 -9.94848,0.18843 -2.40319,0.34661 -3.10915,1.33714 -3.48786,2.4349 -0.18733,1.0231 -0.75225,2.01419 -1.03524,3.03198 -0.26712,1.13735 -0.29137,2.2835 -0.31501,3.42686 0.17862,0.74014 0.91331,1.488 2.27968,1.88827 9.72005,2.84754 6.53493,2.33547 11.36512,3.04088 1.59425,0.15613 0.7909,0.0914 2.41006,0.19402 0,0 -8.59015,-3.14787 -8.59015,-3.14787 v 0 c -1.54931,-0.14804 -0.78595,-0.0568 -2.29041,-0.27313 -3.92854,-0.8281 -1.66591,-0.37671 7.09798,2.12371 1.17919,0.33643 -4.19074,-1.32437 -2.70208,-1.44249 0.0183,-1.12317 0.0333,-2.2488 0.26891,-3.36723 0.26078,-1.01658 0.83975,-2.0023 1.02548,-3.0209 0.25948,-0.91816 0.66116,-1.68397 2.76608,-1.87936 3.23367,-0.23861 6.50464,-0.11879 9.76469,-0.14779 3.43676,0.004 6.87374,0.002 10.31025,0.021 0,0 -8.72701,-3.09218 -8.72701,-3.09218 z" />
      <rect
         style="fill:#88aa00;fill-opacity:1;stroke:#336f00;stroke-width:0.132971;stroke-miterlimit:4;stroke-dasharray:none;stroke-opacity:1;paint-order:fill markers stroke;stop-color:#000000"
         id="rect7544-5"
         width="131.11038"
         height="104.39579"
         x="-218.85519"
         y="-350.01547"
         ry="0"
         transform="matrix(0.07617232,-0.99709467,0.99816585,0.06053865,0,0)" />
      <path
         style="fill:#445500;stroke:#586b49;stroke-width:1.69116;stroke-linecap:butt;stroke-linejoin:miter;stroke-miterlimit:4;stroke-dasharray:none;stroke-opacity:1"
         d="m -346.12546,83.567255 85.9319,7.113222"
         id="path7615" />
      <path
         style="fill:#445500;stroke:#586b49;stroke-width:1.69116;stroke-linecap:butt;stroke-linejoin:miter;stroke-miterlimit:4;stroke-dasharray:none;stroke-opacity:1"
         d="m -349.67349,128.90321 85.9319,7.11322"
         id="path7615-1" />
      <path
         style="fill:#445500;stroke:#586b49;stroke-width:1.69116;stroke-linecap:butt;stroke-linejoin:miter;stroke-miterlimit:4;stroke-dasharray:none;stroke-opacity:1"
         d="m -354.4042,165.17196 85.9319,7.11322"
         id="path7615-1-0" />
    </g>
  </g>
</svg>
