<?xml version="1.0" encoding="UTF-8" standalone="no"?>
<svg
   xmlns:dc="http://purl.org/dc/elements/1.1/"
   xmlns:cc="http://creativecommons.org/ns#"
   xmlns:rdf="http://www.w3.org/1999/02/22-rdf-syntax-ns#"
   xmlns:svg="http://www.w3.org/2000/svg"
   xmlns="http://www.w3.org/2000/svg"
   xmlns:sodipodi="http://sodipodi.sourceforge.net/DTD/sodipodi-0.dtd"
   xmlns:inkscape="http://www.inkscape.org/namespaces/inkscape"
   width="210mm"
   height="97mm"
   viewBox="0 0 210 97"
   version="1.1"
   id="svg8"
   inkscape:version="1.0.2-2 (e86c870879, 2021-01-15)"
   sodipodi:docname="vector.svg">
  <defs
     id="defs2" />
  <sodipodi:namedview
     id="base"
     pagecolor="#ffffff"
     bordercolor="#666666"
     borderopacity="1.0"
     inkscape:pageopacity="0.0"
     inkscape:pageshadow="2"
     inkscape:zoom="1.2707378"
     inkscape:cx="399.31642"
     inkscape:cy="190.71829"
     inkscape:document-units="mm"
     inkscape:current-layer="layer1"
     inkscape:document-rotation="0"
     showgrid="false"
     inkscape:window-width="1366"
     inkscape:window-height="705"
     inkscape:window-x="-8"
     inkscape:window-y="-8"
     inkscape:window-maximized="1" />
  <metadata
     id="metadata5">
    <rdf:RDF>
      <cc:Work
         rdf:about="">
        <dc:format>image/svg+xml</dc:format>
        <dc:type
           rdf:resource="http://purl.org/dc/dcmitype/StillImage" />
        <dc:title></dc:title>
      </cc:Work>
    </rdf:RDF>
  </metadata>
  <g
     inkscape:label="Layer 1"
     inkscape:groupmode="layer"
     id="layer1">
    <rect
       style="fill:#ff6600;stroke:#0000d7;stroke-width:0;stroke-opacity:0.13253;paint-order:fill markers stroke;stop-color:#000000"
       id="rect10"
       width="209.66986"
       height="96.818748"
       x="0.41642475"
       y="0.20821239" />
    <circle
       id="path14"
       style="fill:#ff6600;stroke:#0000d7;stroke-width:0.264583"
       cx="27.900457"
       cy="4.997097"
       r="0" />
    <path
       style="fill:#ffd5d5;stroke:#0000d7;stroke-width:0;stroke-opacity:0.13253;paint-order:fill markers stroke;stop-color:#000000"
       id="path20"
       d="M 12.519022,-1.4068678 C 11.163468,0.08684795 9.6961938,1.4368022 8.2291988,2.7757119 7.9979468,3.0157511 7.7494188,3.2346898 7.5354428,3.495829 7.0857748,4.0446084 6.425347,5.1112297 6.0580018,5.6945662 5.2200337,7.0252392 4.421171,8.3830342 3.631425,9.7533252 2.7821538,11.236068 1.9897625,12.763489 1.3696945,14.39643 c -0.2186562,0.559503 -0.3441031,1.172805 -0.68689403,1.650781 -0.1824403,0.238737 -0.3836224,0.452914 -0.5722599,0.684397 -0.1518906,0.159711 -0.2435554,0.37354 -0.3489739,0.573651 -0.1023925,0.225302 -0.2282352,0.433072 -0.355279,0.639602 -0.089492,0.142952 -0.2251609,0.232185 -0.3239246,0.3649 -0.062167,0.08354 -0.11494887,0.176099 -0.17407937,0.262615 -0.224975,0.361069 -0.3990623,0.760211 -0.5937772,1.143423 -0.2078535,0.332738 -0.398996,0.681245 -0.6288725,0.993984 -0.1588083,0.205371 -0.2684221,0.451112 -0.4000443,0.67866 -0.082108,0.151207 -0.1453639,0.314772 -0.237634,0.458283 0,0 0.8307505,0.576824 0.8307505,0.576824 v 0 c 0.090314,-0.147205 0.1569014,-0.309995 0.2371291,-0.464513 0.1270615,-0.22602 0.2376062,-0.465363 0.3916881,-0.669495 0.2287388,-0.320998 0.416413,-0.678898 0.62481737,-1.017898 0.1948105,-0.377452 0.3753457,-0.766148 0.598263,-1.122676 0.1556035,-0.226273 0.3291239,-0.423802 0.5024026,-0.630389 0.1309691,-0.206893 0.2560655,-0.419325 0.3614961,-0.645782 0.1016128,-0.194242 0.1919008,-0.399721 0.3387433,-0.554439 C 1.1185705,17.081377 1.3222247,16.867324 1.4994344,16.621306 1.8408058,16.124905 1.9649783,15.504744 2.171173,14.924461 2.7554469,13.279405 3.5011261,11.726595 4.3281283,10.232169 5.1067768,8.8525862 5.9012627,7.4980302 6.7575284,6.1823302 c 0.4072684,-0.6257889 1.0248224,-1.5729 1.5089454,-2.154437 0.214079,-0.2571556 0.456198,-0.4800227 0.684298,-0.720034 1.4603922,-1.3737754 2.9117962,-2.76078885 4.3848542,-4.11596195 0,0 -0.816604,-0.59876505 -0.816604,-0.59876505 z" />
    <circle
       id="path24"
       style="fill:#ffd5d5;stroke:#0000d7;stroke-width:0.264583"
       cx="8.328495"
       cy="28.941519"
       r="0" />
    <path
       style="fill:#ffd5d5;stroke:#0000d7;stroke-width:0;stroke-opacity:0.13253;paint-order:fill markers stroke;stop-color:#000000"
       id="path26"
       d="m 102.12307,-4.0845252 c -0.10662,0.094158 -0.22489,0.176396 -0.31987,0.282476 -1.14345,1.2771763 -2.113887,2.7158402 -3.194319,4.04408082 C 97.374845,1.7591041 96.365422,2.8559619 95.061026,4.3177705 92.281276,7.14788 89.786304,10.239952 87.028731,13.09108 c -0.647937,0.669921 -5.917599,5.891881 -6.452467,6.422632 -2.956375,2.844883 -6.030353,5.562326 -9.180101,8.186724 -1.389755,1.157959 -2.828243,2.255636 -4.216581,3.415324 -0.735351,0.614244 -1.448917,1.254537 -2.173375,1.881804 -2.989171,2.745266 -6.08804,5.372436 -9.275606,7.880796 -3.374657,2.655588 -0.125648,0.008 -3.076786,2.437184 -1.689857,1.809176 -3.231735,3.761477 -4.672502,5.776675 -1.255887,1.756607 -2.420485,3.578236 -3.67125,5.338558 -0.579295,0.815299 -1.180364,1.614644 -1.770547,2.421963 -1.868447,2.416589 -3.807908,4.80222 -6.1525,6.770504 -4.614577,3.873932 1.749059,-1.768671 -3.496354,2.948425 -2.124558,2.061118 -4.295521,4.073742 -6.494892,6.053355 -0.623774,0.561447 -2.816609,2.485164 -3.474453,3.109121 -0.551574,0.523161 -1.077889,1.072754 -1.616833,1.609131 -2.349788,2.43908 -4.679804,4.911525 -7.20629,7.168461 -1.416616,1.26548 -1.838023,1.562465 -3.312131,2.726073 -0.605801,0.479941 -1.2163478,0.953854 -1.8174019,1.439826 -2.0617786,1.667015 -2.0393547,1.72562 -4.1469482,3.361999 -1.6526663,1.283166 -3.3457639,2.518843 -5.03692812,3.749814 -1.14319288,0.796278 -2.27345038,1.624826 -3.52544288,2.241643 0,0 5.3496223,3.485928 5.3496223,3.485928 v 0 c 1.0811806,-0.8033 2.053967,-1.737912 3.0523789,-2.640839 0.9383597,-0.849186 1.7776426,-1.62135 2.7527927,-2.443475 2.6003302,-2.192275 5.3179892,-4.235506 8.0813702,-6.212735 1.168799,-0.96634 2.170956,-1.75954 3.269706,-2.81453 0.548521,-0.526676 1.062147,-1.08911 1.590908,-1.635945 1.827821,-1.890289 3.658418,-3.778364 5.619899,-5.530579 1.126409,-1.087419 2.097781,-2.015603 3.203677,-3.120419 2.659641,-2.657039 5.268864,-5.382453 8.257108,-7.675691 1.066901,-0.813532 2.617929,-1.968444 3.670977,-2.866464 0.544562,-0.464392 1.095478,-0.924831 1.594359,-1.43876 1.638515,-1.687942 2.888763,-3.757281 4.285759,-5.636298 0.568717,-0.8239 1.142502,-1.644265 1.706144,-2.4717 0.596098,-0.87508 1.157966,-1.774112 1.773014,-2.635757 2.078106,-2.911302 4.44669,-5.582816 7.037136,-8.039116 3.826646,-3.685058 7.755695,-7.269347 11.917704,-10.568521 1.453344,-1.151668 2.890489,-2.240982 4.252582,-3.501873 0.674204,-0.624116 1.308652,-1.290576 1.957141,-1.941806 2.859103,-2.87118 5.673712,-5.790115 8.680194,-8.508005 2.425598,-2.254689 4.312895,-4.036246 6.775977,-6.222777 0.990652,-0.879424 2.036845,-1.695672 3.001941,-2.603526 0.707772,-0.665793 1.342372,-1.406518 2.011082,-2.112167 2.239024,-2.3627034 1.37388,-1.4209889 3.471158,-3.8200809 1.654098,-1.8085974 2.019368,-2.2334291 3.712618,-3.9848341 0.58248,-0.6024774 2.13984,-2.20317161 2.89104,-2.83356049 0.46199,-0.38769559 0.8835,-0.63211945 1.3728,-0.93178007 0,0 -5.42536,-3.41030664 -5.42536,-3.41030664 z" />
    <path
       style="fill:#ffd5d5;stroke:#0000d7;stroke-width:0;stroke-opacity:0.13253;paint-order:fill markers stroke;stop-color:#000000"
       id="path28"
       d="m 35.743903,-2.5245915 c -1.039815,1.1798798 -2.337422,2.09892659 -3.507597,3.14088749 -1.101939,0.98119961 -1.376577,1.29720821 -2.39939,2.34250631 -0.372726,0.4090889 -0.749469,0.8145552 -1.118182,1.2272668 -0.33701,0.3772297 -0.686411,0.7446362 -0.99888,1.1424338 -1.249517,1.5907305 -2.108667,3.4320115 -3.046131,5.2108381 -1.258379,2.181492 -2.548926,4.345732 -3.743504,6.563239 -0.130629,0.267566 -0.263026,0.534276 -0.391888,0.802697 -0.451299,0.940069 -0.534594,1.198347 -1.105038,2.139915 -0.707113,1.167151 -1.54738,2.253371 -2.364944,3.343279 -1.2947,1.70489 -2.426856,3.52175 -3.600236,5.309584 -0.856978,1.318297 -1.870645,2.534896 -2.885569,3.734933 -1.5120311,1.790321 -3.1176127,3.497603 -4.637572,5.281189 -0.6517425,0.788217 -1.3915805,1.52374 -1.9430628,2.389944 -0.1654471,0.179215 -0.2297159,0.439399 -0.4141934,0.602372 -0.073991,0.06537 -0.1595221,0.116792 -0.233823,0.181805 -0.2897751,0.138084 -0.5470326,0.314757 -0.8011627,0.511395 -0.3808899,0.414353 -0.707235,0.864838 -1.1428558,1.226989 -0.3909192,0.312222 -0.80949294,0.58438 -1.23354784,0.84904 -0.4555978,0.222734 -0.8662993,0.523801 -1.28487696,0.807583 -0.8956265,0.735568 -1.7854853,1.479655 -2.6932508,2.200817 -0.5875571,0.478176 -1.1388619,0.999236 -1.7174176,1.487035 0,0 4.0094032,2.481472 4.0094032,2.481472 v 0 C -0.98412884,49.93337 -0.46645024,49.40581 0.09564826,48.924729 0.97672196,48.173836 1.8742072,47.437228 2.8568382,46.8209 3.275088,46.543807 3.6891038,46.261637 4.1333867,46.026716 4.5771185,45.750954 5.0033395,45.446685 5.3998658,45.106019 5.8017372,44.731998 6.1355876,44.293991 6.5465345,43.93325 c 0.2727584,-0.187481 0.5716079,-0.333957 0.8289499,-0.542745 0.302973,-0.263538 0.5188183,-0.571444 0.6976237,-0.930979 0.4714322,-0.877294 1.118753,-1.653376 1.717558,-2.44357 1.4256759,-1.853017 3.0398279,-3.540709 4.5689549,-5.30647 0.827048,-0.940308 0.709604,-0.820803 1.544467,-1.716354 0.578084,-0.620109 1.171854,-1.209972 1.507932,-2.005971 1.041292,-1.851247 2.105585,-3.690188 3.408896,-5.374729 1.465699,-2.003394 2.986666,-4.009944 4.010698,-6.284389 1.09246,-2.268789 2.296867,-4.4787 3.564662,-6.654294 0.250563,-0.456079 0.506079,-0.909472 0.751689,-1.368238 0.594709,-1.110842 0.729877,-1.4894896 1.413954,-2.5488136 0.837253,-1.296521 1.846752,-2.4657433 2.916526,-3.5740286 0.374047,-0.3891933 0.733433,-0.793029 1.122141,-1.16758 1.596522,-1.5383717 3.42171,-2.7898355 5.195755,-4.10660111 0,0 -4.052438,-2.43307919 -4.052438,-2.43307919 z" />
    <path
       style="fill:#ffd5d5;stroke:#0000d7;stroke-width:0;stroke-opacity:0.13253;paint-order:fill markers stroke;stop-color:#000000"
       id="path30"
       d="m 209.57683,30.758601 c -0.64473,0.586327 -1.32543,1.136665 -1.92908,1.767329 -0.40099,0.418949 -0.77138,0.866169 -1.15707,1.299252 -0.58762,0.621726 -1.16759,1.25077 -1.76285,1.865178 -0.77319,0.798047 -1.56151,1.581293 -2.34226,2.371942 -2.94258,2.96977 -5.85966,5.968235 -8.87746,8.862406 -3.34207,3.205165 0.81335,-0.865902 -3.05374,2.947427 -0.80884,0.782695 -1.60064,1.583404 -2.42654,2.348092 -1.01963,0.94407 -2.08698,1.835632 -3.10895,2.777173 -1.25682,1.157904 -2.4845,2.347036 -3.72675,3.520553 -1.3316,1.237311 -2.65596,2.482453 -3.9948,3.71193 -3.93599,3.614491 -3.33483,3.045732 -7.17873,6.350923 -0.97158,0.837724 -1.95427,1.662726 -2.91473,2.513174 -0.87158,0.771747 -1.7174,1.572128 -2.58086,2.35295 -2.34813,2.12339 -4.72442,4.215326 -7.06932,6.342314 -1.75435,1.568598 -3.3914,3.258465 -4.97371,4.998564 -1.94721,2.503694 -4.37791,4.571357 -6.764,6.640462 -1.45221,1.385223 -2.78774,2.885506 -4.26354,4.246499 -0.57147,0.556728 -1.25852,0.973582 -1.84402,1.512234 -0.34819,0.240382 -0.58768,0.592772 -0.86695,0.901848 0,0 4.04555,2.440729 4.04555,2.440729 v 0 c 0.25825,-0.30691 0.51856,-0.611553 0.83053,-0.86699 0.56759,-0.539163 1.17751,-1.033156 1.72138,-1.597684 1.39271,-1.416558 2.64461,-2.963894 4.07266,-4.347136 1.57348,-1.493499 3.14953,-2.984502 4.72709,-4.473651 0.42394,-0.400183 0.85968,-0.787922 1.27797,-1.194012 0.31292,-0.303795 0.61008,-0.623411 0.91513,-0.935117 1.50662,-1.764223 3.09792,-3.450243 4.71448,-5.113874 3.88518,-3.942459 7.79494,-7.861613 11.83751,-11.643871 3.63045,-3.425642 7.20909,-6.905662 10.97583,-10.183603 3.27724,-2.851968 4.08553,-3.425394 7.3063,-6.003116 0.90588,-0.725008 1.80837,-1.454232 2.71255,-2.181349 0.61068,-0.528958 1.25299,-1.023469 1.83204,-1.586873 0.44234,-0.430382 0.81639,-0.925787 1.22543,-1.387943 0.53153,-0.600565 1.0592,-1.204592 1.59627,-1.800215 2.2449,-2.48966 4.55434,-4.922461 7.0148,-7.202021 0.84979,-0.748885 1.69622,-1.501614 2.54939,-2.246654 0.66592,-0.581525 1.34866,-1.143804 2.00781,-1.732992 0.4313,-0.385524 0.82751,-0.80944 1.26279,-1.190466 0.69038,-0.604332 1.44564,-1.091748 2.21147,-1.588759 0,0 -4.00162,-2.494653 -4.00162,-2.494653 z" />
    <path
       style="fill:#ffd5d5;stroke:#0000d7;stroke-width:0;stroke-opacity:0.13253;paint-order:fill markers stroke;stop-color:#000000"
       id="path32"
       d="m 208.99978,8.862619 c -1.46502,0.6593133 -2.32097,1.0205 -3.87773,1.891974 -1.3506,0.756068 -2.66147,1.581023 -3.99226,2.371449 -4.70255,2.7931 -9.40572,5.584564 -14.12041,8.35713 -3.29684,1.949079 -6.6626,3.779182 -9.9618,5.724083 -0.92415,0.544793 -3.38518,2.027055 -4.20564,2.66315 -1.11066,0.861089 -2.13931,1.823053 -3.20897,2.73458 -1.37569,1.116523 -2.74063,2.246402 -4.12705,3.349572 -13.63488,10.849221 4.54152,-3.764235 -8.64501,6.817066 -3.33469,2.675866 -6.61278,5.416333 -9.899,8.151013 -4.87956,4.516814 -9.85592,8.926875 -14.68585,13.497312 -2.61688,2.47628 -4.84629,4.651023 -7.42566,7.150708 -1.03736,0.979747 -2.06933,1.965248 -3.1121,2.93924 -0.87435,0.816676 -1.76283,1.618107 -2.63915,2.432659 -2.33372,2.169213 -4.64612,4.354044 -7.09613,6.394159 -0.75999,0.632835 -1.54359,1.236771 -2.31538,1.855157 -3.02118,2.288469 -6.04781,4.569251 -8.92489,7.038248 -1.166835,1.060672 -2.479338,1.936747 -3.722422,2.900211 -0.443719,0.31835 -0.902319,0.601224 -1.302379,0.974649 -0.542423,0.327504 -1.001686,0.761595 -1.419622,1.233395 -0.355349,0.425796 -0.674614,0.874574 -0.964473,1.346766 -0.170542,0.268496 -0.313457,0.423513 -0.629674,0.472199 -0.383103,0.12065 -0.613706,0.362421 -0.823433,0.695407 -0.115848,0.243024 -0.05812,0.131363 -0.170519,0.336344 0,0 4.104788,2.35551 4.104788,2.35551 v 0 c 0.113742,-0.21143 0.06384,-0.10983 0.152128,-0.30361 0.164645,-0.24168 0.373375,-0.3468 0.655354,-0.42283 0.361051,-0.1662 0.602449,-0.42294 0.80096,-0.76559 0.257823,-0.45226 0.532876,-0.89161 0.870474,-1.290264 0.43017,-0.454702 0.91308,-0.82859 1.434854,-1.172586 0.396534,-0.348739 0.837344,-0.640413 1.230354,-0.993798 1.16214,-1.024216 2.37453,-1.991273 3.4964,-3.061465 2.73229,-2.53647 5.59046,-4.9344 8.46906,-7.302169 0.75776,-0.635244 4.00829,-3.351067 4.68511,-3.957201 3.5108,-3.144179 6.68103,-6.643566 9.95024,-10.029907 2.23307,-2.25946 4.97047,-5.062696 7.26155,-7.239868 4.86368,-4.621858 10.0909,-8.825095 15.19918,-13.168047 3.09666,-2.85998 6.19306,-5.719964 9.41999,-8.434282 3.19259,-2.685441 5.26632,-4.315952 8.64353,-6.807856 1.45734,-1.075309 2.94507,-2.108809 4.4176,-3.163213 1.21806,-0.806323 2.42857,-1.624161 3.65416,-2.418969 0.72753,-0.471802 1.4826,-0.900628 2.20477,-1.380585 0.64551,-0.429011 1.26061,-0.902176 1.89659,-1.345195 3.0539,-2.127324 6.18258,-4.14292 9.33605,-6.119027 4.68091,-2.860908 9.33884,-5.791453 14.25014,-8.250367 2.47083,-1.237054 4.76482,-2.296742 7.39721,-3.043055 0.5197,-0.14734 1.0638,-0.188474 1.5957,-0.282711 0,0 -3.85664,-2.729386 -3.85664,-2.729386 z" />
    <path
       style="fill:#ffd5d5;stroke:#0000d7;stroke-width:0;stroke-opacity:0.13253;paint-order:fill markers stroke;stop-color:#000000"
       id="path34"
       d="m 67.833353,-1.0785813 c -0.566539,0.62126867 -1.389317,1.53344812 -1.926947,2.0553744 -0.651203,0.6321804 -1.345451,1.2186745 -2.004589,1.8425759 -0.948659,0.89794 -1.87615,1.8179915 -2.818443,2.722609 -1.059378,1.0170245 -2.124363,2.0281948 -3.186543,3.0422921 -1.071031,1.0290956 -2.142064,2.0581909 -3.213095,3.0872869 -2.952668,2.814827 -5.963671,5.566712 -9.023231,8.264329 -0.714608,0.63007 -1.406676,1.286261 -2.13877,1.895923 -0.837242,0.697225 -1.71152,1.348737 -2.567281,2.023105 -5.214665,3.813369 -10.159219,7.97508 -15.288808,11.898194 -0.522389,0.398341 -1.052156,0.787189 -1.567167,1.195023 -1.141045,0.903584 -1.931026,1.616199 -3.053069,2.568138 -1.857827,1.576181 -3.722864,3.142753 -5.570798,4.730644 -2.077431,1.75206 -3.73594,3.91019 -5.543704,5.920436 -1.0068282,1.1196 -1.3780092,1.478637 -2.4090037,2.533684 -0.3414286,0.331515 -0.6809089,0.665049 -1.0242862,0.994545 -0.2331924,0.223766 -1.3612196,1.277662 -1.6228406,1.555668 -0.8255503,0.877253 -1.5370183,1.868998 -2.2884156,2.808467 -1.0079517,1.274715 -2.0579606,2.517241 -3.03176783,3.818703 -0.47509945,0.695952 -0.81609117,1.472766 -1.18253797,2.229093 -0.2275518,0.487365 -0.5956563,0.85816 -0.9710682,1.228749 -0.3187864,0.241855 -0.5735434,0.556551 -0.8138634,0.873437 -0.1260363,0.204512 -0.2574419,0.399852 -0.3618118,0.616741 0,0 4.12202851,2.333472 4.12202851,2.333472 v 0 c 0.0852737,-0.188111 0.2020271,-0.354621 0.30709587,-0.531953 0.23055926,-0.300085 0.47875252,-0.583311 0.76689752,-0.830284 0.4037024,-0.415996 0.7853508,-0.849976 1.0154371,-1.391145 0.3314298,-0.745093 0.6750529,-1.488191 1.1176246,-2.175052 0.8620961,-1.354248 1.803673,-2.657927 2.7925977,-3.922075 1.522199,-1.871617 3.1481122,-3.646164 4.810357,-5.394171 1.228721,-1.339247 2.460086,-2.683579 3.643855,-4.062878 0.408818,-0.476345 0.788303,-0.977416 1.198897,-1.452232 1.327099,-1.534668 1.426068,-1.57163 2.901736,-3.022383 0.581641,-0.522301 1.151713,-1.057775 1.744922,-1.566899 2.759529,-2.368368 5.768396,-4.435195 8.430989,-6.919635 2.14344,-1.875729 4.273468,-3.770484 6.483488,-5.568281 1.962658,-1.596572 3.677713,-2.898645 5.710938,-4.403822 0.9417,-0.697133 1.894245,-1.379496 2.841366,-2.069243 0.167902,-0.123489 4.75238,-3.484963 5.060839,-3.749991 0.519165,-0.446068 0.947917,-0.98769 1.417841,-1.485365 2.287815,-2.422915 4.557255,-4.864426 6.957716,-7.178115 2.384695,-2.278942 4.009504,-3.8988897 6.524863,-6.0346918 1.794833,-1.5239989 3.528116,-2.8107367 5.387332,-4.2172598 0.513758,-0.3886658 1.014505,-0.7952863 1.542524,-1.1643468 0.231322,-0.1616844 0.488016,-0.2836376 0.732022,-0.4254564 0,0 -3.903326,-2.6732105 -3.903326,-2.6732105 z" />
    <path
       style="fill:#ffd5d5;stroke:#0000d7;stroke-width:0;stroke-opacity:0.13253;paint-order:fill markers stroke;stop-color:#000000"
       id="path26-1"
       d="m 154.11716,-3.4544398 c -0.10662,0.09416 -0.22489,0.176396 -0.31987,0.282476 -1.14345,1.2771761 -2.11389,2.71584002 -3.19432,4.04408061 -1.23404,1.51707249 -2.24346,2.61393029 -3.54786,4.07573889 -2.77975,2.8301095 -5.27472,5.9221813 -8.03229,8.7733103 -0.64794,0.669921 -5.9176,5.891881 -6.45247,6.422632 -2.95637,2.844883 -6.03035,5.562326 -9.1801,8.186724 -1.38975,1.157959 -2.82824,2.255636 -4.21658,3.415324 -0.73535,0.614244 -1.44892,1.254537 -2.17338,1.881804 -2.98917,2.745266 -6.08804,5.372436 -9.2756,7.880796 -3.37466,2.655588 -0.12565,0.008 -3.07679,2.437184 -1.68985,1.809176 -3.23173,3.761477 -4.672497,5.776675 -1.255892,1.756607 -2.420482,3.578236 -3.671252,5.338558 -0.57929,0.815299 -1.18036,1.614644 -1.77055,2.421963 -1.86844,2.416589 -3.8079,4.80222 -6.1525,6.770504 -4.61457,3.873932 1.74906,-1.768671 -3.49635,2.948425 -2.12456,2.061118 -4.29552,4.073742 -6.49489,6.053355 -0.62378,0.561447 -2.81661,2.485164 -3.47446,3.109121 -0.55157,0.523161 -1.07788,1.072754 -1.616828,1.609131 -2.349788,2.43908 -4.679804,4.911525 -7.20629,7.168461 -1.416616,1.26548 -1.838023,1.562465 -3.312131,2.726073 -0.605801,0.479941 -1.216348,0.953854 -1.817402,1.439826 -2.061779,1.667015 -2.039355,1.72562 -4.146948,3.361999 -1.652666,1.283166 -3.345764,2.518843 -5.036928,3.749814 -1.143193,0.796278 -2.273451,1.624826 -3.525443,2.241643 0,0 5.349622,3.485932 5.349622,3.485932 v 0 c 1.081181,-0.8033 2.053967,-1.73792 3.052379,-2.640843 0.93836,-0.849186 1.777643,-1.62135 2.752793,-2.443475 2.60033,-2.192275 5.317989,-4.235506 8.08137,-6.212735 1.168799,-0.96634 2.170956,-1.75954 3.269706,-2.81453 0.548521,-0.526676 1.062147,-1.08911 1.590908,-1.635945 1.827822,-1.890289 3.658422,-3.778364 5.619902,-5.530579 1.12641,-1.087419 2.09778,-2.015603 3.20367,-3.120419 2.65964,-2.657039 5.26887,-5.382453 8.25711,-7.675691 1.0669,-0.813532 2.61793,-1.968444 3.67098,-2.866464 0.54456,-0.464392 1.09548,-0.924831 1.59436,-1.43876 1.63851,-1.687942 2.88876,-3.757281 4.28576,-5.636298 0.568712,-0.8239 1.142499,-1.644265 1.706139,-2.4717 0.5961,-0.87508 1.15797,-1.774112 1.77301,-2.635757 2.07811,-2.911302 4.44669,-5.582816 7.03714,-8.039116 3.82665,-3.685058 7.7557,-7.269347 11.9177,-10.568521 1.45335,-1.151668 2.89049,-2.240982 4.25259,-3.501873 0.6742,-0.624116 1.30865,-1.290576 1.95714,-1.941806 2.8591,-2.87118 5.67371,-5.790115 8.68019,-8.508005 2.4256,-2.254689 4.3129,-4.036246 6.77598,-6.222777 0.99065,-0.879424 2.03684,-1.695672 3.00194,-2.603526 0.70777,-0.665793 1.34237,-1.406518 2.01108,-2.112167 2.23903,-2.3627042 1.37388,-1.42099 3.47116,-3.8200817 1.6541,-1.8085974 2.01937,-2.2334291 3.71262,-3.9848341 0.58248,-0.6024774 2.13984,-2.2031716 2.89104,-2.83356049 0.46199,-0.3876956 0.8835,-0.63211939 1.3728,-0.93178009 0,0 -5.42536,-3.41030642 -5.42536,-3.41030642 z" />
    <path
       style="fill:#ffd5d5;stroke:#0000d7;stroke-width:0;stroke-opacity:0.13253;paint-order:fill markers stroke;stop-color:#000000"
       id="path26-1-3"
       d="m 130.38094,-4.9119289 c -0.10662,0.09416 -0.22489,0.176396 -0.31987,0.282476 -1.14345,1.2771761 -2.11389,2.71584 -3.19432,4.04408057 -1.23404,1.5170725 -2.24346,2.61393033 -3.54786,4.07573903 -2.77975,2.830109 -5.27472,5.922181 -8.03229,8.7733103 -0.64794,0.669921 -5.91759,5.891881 -6.45246,6.422632 -2.95637,2.844883 -6.03035,5.562326 -9.180102,8.186724 -1.38975,1.157959 -2.82824,2.255636 -4.21658,3.415324 -0.73535,0.614244 -1.44892,1.254537 -2.17338,1.881804 -2.98917,2.745266 -6.08804,5.372436 -9.2756,7.880796 -3.37466,2.655588 -0.12565,0.008 -3.07679,2.437184 -1.68985,1.809176 -3.23173,3.761477 -4.672497,5.776675 -1.255892,1.756607 -2.420482,3.578236 -3.671252,5.338558 -0.57929,0.815299 -1.18036,1.614644 -1.77055,2.421963 -1.86844,2.416589 -3.8079,4.80222 -6.1525,6.770504 -4.61457,3.873932 1.74906,-1.768671 -3.49635,2.948425 -2.12456,2.061118 -4.29552,4.073742 -6.49489,6.053355 -0.62378,0.561447 -2.81661,2.485164 -3.47446,3.109121 -0.55157,0.523161 -1.07788,1.072754 -1.616828,1.609131 -2.349788,2.43908 -4.679804,4.911525 -7.20629,7.168461 -1.416616,1.26548 -1.838023,1.562465 -3.312131,2.726073 -0.605801,0.479941 -1.216348,0.953854 -1.817402,1.439826 -2.061779,1.667015 -2.039355,1.72562 -4.146948,3.361999 -1.652666,1.283166 -3.345764,2.51884 -5.036928,3.74981 -1.143193,0.79628 -2.273451,1.62483 -3.525443,2.24165 0,0 5.349622,3.485928 5.349622,3.485928 v 0 c 1.081181,-0.803298 2.053967,-1.737918 3.052379,-2.640838 0.93836,-0.84919 1.777643,-1.62135 2.752793,-2.44348 2.60033,-2.19227 5.317989,-4.235505 8.08137,-6.212734 1.168799,-0.96634 2.170956,-1.75954 3.269706,-2.81453 0.548521,-0.526676 1.062147,-1.08911 1.590908,-1.635945 1.827822,-1.890289 3.658422,-3.778364 5.619902,-5.530579 1.12641,-1.087419 2.09778,-2.015603 3.20367,-3.120419 2.65964,-2.657039 5.26887,-5.382453 8.25711,-7.675691 1.0669,-0.813532 2.61793,-1.968444 3.67098,-2.866464 0.54456,-0.464392 1.09548,-0.924831 1.59436,-1.43876 1.63851,-1.687942 2.88876,-3.757281 4.28576,-5.636298 0.568712,-0.8239 1.142499,-1.644265 1.706139,-2.4717 0.5961,-0.87508 1.15797,-1.774112 1.77301,-2.635757 2.07811,-2.911302 4.44669,-5.582816 7.03714,-8.039116 3.82665,-3.685058 7.7557,-7.269347 11.9177,-10.568521 1.45335,-1.151668 2.890492,-2.240982 4.252592,-3.501873 0.6742,-0.624116 1.30865,-1.290576 1.95714,-1.941806 2.8591,-2.87118 5.67371,-5.790115 8.68018,-8.508005 2.4256,-2.254689 4.3129,-4.036246 6.77598,-6.222777 0.99065,-0.879424 2.03684,-1.695672 3.00194,-2.603526 0.70777,-0.665793 1.34237,-1.406518 2.01108,-2.112167 2.23903,-2.3627043 1.37388,-1.4209903 3.47116,-3.8200823 1.6541,-1.808597 2.01937,-2.233429 3.71262,-3.9848336 0.58248,-0.6024774 2.13984,-2.20317163 2.89104,-2.83356053 0.46199,-0.3876956 0.8835,-0.63211937 1.3728,-0.93178007 0,0 -5.42536,-3.4103064 -5.42536,-3.4103064 z" />
    <path
       style="fill:#ffd5d5;stroke:#0000d7;stroke-width:0;stroke-opacity:0.13253;paint-order:fill markers stroke;stop-color:#000000"
       id="path26-1-3-5"
       d="m 180.76834,-6.3694149 c -0.10662,0.09416 -0.22489,0.176396 -0.31987,0.282476 -1.14345,1.277176 -2.11389,2.71584 -3.19432,4.044081 -1.23404,1.51707195 -2.24346,2.61392995 -3.54786,4.075739 -2.77975,2.8301087 -5.27472,5.9221807 -8.03229,8.7733099 -0.64794,0.669921 -5.91759,5.891881 -6.45246,6.422632 -2.95637,2.844883 -6.03035,5.562326 -9.18011,8.186724 -1.38975,1.157959 -2.82824,2.255636 -4.21658,3.415324 -0.73535,0.614244 -1.44892,1.254537 -2.17338,1.881804 -2.98917,2.745266 -6.08804,5.372436 -9.2756,7.880796 -3.37466,2.655588 -0.12565,0.008 -3.07679,2.437184 -1.68985,1.809176 -3.23173,3.761477 -4.67249,5.776675 -1.2559,1.756607 -2.42048,3.578236 -3.67125,5.338558 -0.5793,0.815299 -1.18036,1.614644 -1.77056,2.421963 -1.86844,2.416589 -3.8079,4.80222 -6.1525,6.770504 -4.61456,3.873932 1.74907,-1.768671 -3.49635,2.948425 -2.12456,2.061118 -4.29551,4.073742 -6.49489,6.053355 -0.62377,0.561447 -2.8166,2.485164 -3.47445,3.109121 -0.55157,0.523161 -1.07788,1.072754 -1.616827,1.609131 -2.34979,2.43908 -4.67981,4.911525 -7.20629,7.168461 -1.41662,1.26548 -1.83803,1.562465 -3.31213,2.726073 -0.6058,0.479941 -1.21635,0.953854 -1.81741,1.439826 -2.06177,1.667015 -2.03935,1.72562 -4.14694,3.361999 -1.65267,1.283166 -3.34577,2.51884 -5.03693,3.74981 -1.14319,0.79628 -2.27345,1.62483 -3.52544,2.24165 0,0 5.34962,3.485928 5.34962,3.485928 v 0 c 1.08118,-0.803298 2.05396,-1.737918 3.05238,-2.640838 0.93836,-0.84919 1.77764,-1.62135 2.75279,-2.44348 2.60033,-2.19227 5.31799,-4.235505 8.08137,-6.212734 1.1688,-0.96634 2.17096,-1.75954 3.26971,-2.81453 0.54852,-0.526676 1.06214,-1.08911 1.5909,-1.635945 1.827817,-1.890289 3.658427,-3.778364 5.619897,-5.530579 1.12641,-1.087419 2.09778,-2.015603 3.20367,-3.120419 2.65964,-2.657039 5.26887,-5.382453 8.25711,-7.675691 1.0669,-0.813532 2.61793,-1.968444 3.67098,-2.866464 0.54456,-0.464392 1.09548,-0.924831 1.59436,-1.43876 1.63851,-1.687942 2.88876,-3.757281 4.28576,-5.636298 0.56872,-0.8239 1.1425,-1.644265 1.70614,-2.4717 0.5961,-0.87508 1.15797,-1.774112 1.77301,-2.635757 2.07811,-2.911302 4.44669,-5.582816 7.03714,-8.039116 3.82665,-3.685058 7.7557,-7.269347 11.9177,-10.568521 1.45335,-1.151668 2.8905,-2.240982 4.2526,-3.501873 0.6742,-0.624116 1.30865,-1.290576 1.95714,-1.941806 2.8591,-2.87118 5.67371,-5.790115 8.68018,-8.508005 2.4256,-2.254689 4.3129,-4.036246 6.77598,-6.222777 0.99065,-0.879424 2.03684,-1.695672 3.00194,-2.603526 0.70777,-0.665793 1.34237,-1.4065179 2.01108,-2.1121669 2.23903,-2.3627043 1.37388,-1.4209903 3.47116,-3.8200823 1.6541,-1.808597 2.01937,-2.233429 3.71262,-3.98483375 0.58248,-0.602477 2.13984,-2.20317195 2.89104,-2.83355995 0.46199,-0.387696 0.8835,-0.63212 1.3728,-0.931781 0,0 -5.42536,-3.410306 -5.42536,-3.410306 z" />
    <path
       style="fill:#ffd5d5;stroke:#0000d7;stroke-width:0;stroke-opacity:0.13253;paint-order:fill markers stroke;stop-color:#000000"
       id="path20-0"
       d="m 210.95893,75.117564 c -1.35555,1.493716 -2.82283,2.84367 -4.28982,4.18258 -0.23125,0.240039 -0.47978,0.458978 -0.69376,0.720117 -0.44967,0.548779 -1.11009,1.615401 -1.47744,2.198737 -0.83797,1.330673 -1.63683,2.688468 -2.42657,4.058759 -0.84928,1.482743 -1.64167,3.010164 -2.26174,4.643105 -0.21865,0.559503 -0.3441,1.172805 -0.68689,1.650781 -0.18244,0.238737 -0.38362,0.452914 -0.57226,0.684397 -0.15189,0.159711 -0.24355,0.37354 -0.34897,0.573651 -0.1024,0.225302 -0.22824,0.433072 -0.35528,0.639602 -0.0895,0.142952 -0.22516,0.232185 -0.32393,0.3649 -0.0622,0.08354 -0.11495,0.176099 -0.17408,0.262615 -0.22497,0.361069 -0.39906,0.760211 -0.59377,1.143423 -0.20786,0.332738 -0.399,0.681245 -0.62888,0.993984 -0.1588,0.205371 -0.26842,0.451112 -0.40004,0.67866 -0.0821,0.151207 -0.14536,0.314772 -0.23763,0.458283 0,0 0.83075,0.576824 0.83075,0.576824 v 0 c 0.0903,-0.147205 0.1569,-0.309995 0.23713,-0.464513 0.12706,-0.22602 0.2376,-0.465363 0.39168,-0.669495 0.22874,-0.320998 0.41642,-0.678898 0.62482,-1.017898 0.19481,-0.377452 0.37535,-0.766148 0.59826,-1.122676 0.15561,-0.226273 0.32913,-0.423802 0.50241,-0.630389 0.13097,-0.206893 0.25606,-0.419325 0.36149,-0.645782 0.10162,-0.194242 0.1919,-0.399721 0.33875,-0.554439 0.18532,-0.236981 0.38897,-0.451034 0.56618,-0.697052 0.34138,-0.496401 0.46555,-1.116562 0.67174,-1.696845 0.58428,-1.645056 1.32996,-3.197866 2.15696,-4.692292 0.77865,-1.379583 1.57313,-2.734139 2.4294,-4.049839 0.40727,-0.625789 1.02482,-1.5729 1.50894,-2.154437 0.21408,-0.257155 0.4562,-0.480022 0.6843,-0.720034 1.46039,-1.373775 2.9118,-2.760789 4.38486,-4.115962 0,0 -0.81661,-0.598765 -0.81661,-0.598765 z" />
    <path
       style="fill:#ffd5d5;stroke:#0000d7;stroke-width:0;stroke-opacity:0.13253;paint-order:fill markers stroke;stop-color:#000000"
       id="path28-0"
       d="m 212.45106,49.092482 c -1.03981,1.17988 -2.33742,2.098927 -3.5076,3.140888 -1.10193,0.981199 -1.37657,1.297208 -2.39938,2.342506 -0.37273,0.409089 -0.74947,0.814555 -1.11819,1.227267 -0.33701,0.377229 -0.68641,0.744636 -0.99888,1.142433 -1.24951,1.590731 -2.10866,3.432012 -3.04613,5.210839 -1.25838,2.181492 -2.54892,4.345732 -3.7435,6.563239 -0.13063,0.267566 -0.26303,0.534276 -0.39189,0.802697 -0.4513,0.940069 -0.53459,1.198347 -1.10504,2.139915 -0.70711,1.167151 -1.54738,2.253371 -2.36494,3.343279 -1.2947,1.70489 -2.42686,3.52175 -3.60024,5.309584 -0.85698,1.318297 -1.87064,2.534896 -2.88557,3.734933 -1.51203,1.790321 -3.11761,3.497603 -4.63757,5.281189 -0.65174,0.788217 -1.39158,1.523735 -1.94306,2.389945 -0.16545,0.17921 -0.22972,0.4394 -0.4142,0.60237 -0.074,0.0654 -0.15952,0.11679 -0.23382,0.18181 -0.28977,0.13808 -0.54703,0.31475 -0.80116,0.51139 -0.38089,0.41435 -0.70724,0.86484 -1.14286,1.22699 -0.39092,0.31222 -0.80949,0.58438 -1.23354,0.84904 -0.4556,0.22273 -0.8663,0.5238 -1.28488,0.80758 -0.89563,0.73557 -1.78549,1.47966 -2.69325,2.20082 -0.58756,0.47818 -1.13886,0.99924 -1.71742,1.48703 0,0 4.0094,2.481484 4.0094,2.481484 v 0 c 0.52569,-0.51926 1.04337,-1.04682 1.60547,-1.5279 0.88107,-0.750904 1.77856,-1.487504 2.76119,-2.103834 0.41825,-0.27709 0.83226,-0.55927 1.27655,-0.79419 0.44373,-0.27576 0.86995,-0.58003 1.26647,-0.92069 0.40188,-0.37402 0.73573,-0.81203 1.14667,-1.17277 0.27276,-0.18748 0.57161,-0.33396 0.82895,-0.54275 0.30298,-0.26354 0.51882,-0.57144 0.69763,-0.93098 0.47143,-0.87729 1.11875,-1.65337 1.71755,-2.44357 1.42568,-1.853013 3.03983,-3.540705 4.56896,-5.306466 0.82705,-0.940308 0.7096,-0.820803 1.54447,-1.716354 0.57808,-0.620109 1.17185,-1.209972 1.50793,-2.005971 1.04129,-1.851247 2.10558,-3.690188 3.40889,-5.374729 1.4657,-2.003394 2.98667,-4.009944 4.0107,-6.284389 1.09246,-2.268789 2.29687,-4.4787 3.56467,-6.654294 0.25056,-0.456079 0.50607,-0.909472 0.75168,-1.368238 0.59471,-1.110842 0.72988,-1.48949 1.41396,-2.548814 0.83725,-1.296521 1.84675,-2.465743 2.91652,-3.574029 0.37405,-0.389193 0.73344,-0.793029 1.12214,-1.16758 1.59653,-1.538371 3.42171,-2.789835 5.19576,-4.106601 0,0 -4.05244,-2.433079 -4.05244,-2.433079 z" />
  </g>
</svg>
